<?xml version="1.0" encoding="UTF-8" standalone="no"?>
<svg
   xmlns:osb="http://www.openswatchbook.org/uri/2009/osb"
   xmlns:dc="http://purl.org/dc/elements/1.1/"
   xmlns:cc="http://creativecommons.org/ns#"
   xmlns:rdf="http://www.w3.org/1999/02/22-rdf-syntax-ns#"
   xmlns:svg="http://www.w3.org/2000/svg"
   xmlns="http://www.w3.org/2000/svg"
   xmlns:sodipodi="http://sodipodi.sourceforge.net/DTD/sodipodi-0.dtd"
   xmlns:inkscape="http://www.inkscape.org/namespaces/inkscape"
   width="1.33333in"
   height="1.33333in"
   viewBox="0 0 400 400"
   version="1.1"
   id="svg3"
   sodipodi:docname="logo-400x400.svg"
   inkscape:export-filename="/media/dem/d91925de-b00f-44cd-8465-2d18fc8ce62a/dev/libraries/stdtabs/phptabs/github/phptabs/docs/assets/logo-400x400.svg.png"
   inkscape:export-xdpi="96"
   inkscape:export-ydpi="96"
   inkscape:version="0.92.4 (5da689c313, 2019-01-14)">
  <metadata
     id="metadata9">
    <rdf:RDF>
      <cc:Work
         rdf:about="">
        <dc:format>image/svg+xml</dc:format>
        <dc:type
           rdf:resource="http://purl.org/dc/dcmitype/StillImage" />
      </cc:Work>
    </rdf:RDF>
  </metadata>
  <defs
     id="defs7">
    <linearGradient
       id="linearGradient5985"
       osb:paint="solid">
      <stop
         style="stop-color:#5ccbd6;stop-opacity:1;"
         offset="0"
         id="stop5983" />
    </linearGradient>
  </defs>
  <sodipodi:namedview
     pagecolor="#ffffff"
     bordercolor="#666666"
     borderopacity="1"
     objecttolerance="10"
     gridtolerance="10"
     guidetolerance="10"
     inkscape:pageopacity="0"
     inkscape:pageshadow="2"
     inkscape:window-width="1920"
     inkscape:window-height="981"
     id="namedview5"
     showgrid="false"
     inkscape:zoom="5.2149254"
     inkscape:cx="153.68652"
     inkscape:cy="42.30498"
     inkscape:window-x="0"
     inkscape:window-y="28"
     inkscape:window-maximized="1"
     inkscape:current-layer="layer1" />
  <path
     id="Sélection"
     d="m 100,100 c 0,0 0,200 0,200 0,0 -67,0 -67,0 0,0 0,68 0,68 0,0 135,0 135,0 0,0 0,-200 0,-200 0,0 133,0 133,0 0,0 0,132 0,132 0,0 -68,0 -68,0 0,0 0,68 0,68 0,0 135,0 135,0 0,0 0,-268 0,-268 0,0 -268,0 -268,0 z"
     inkscape:connector-curvature="0"
     style="fill:none;stroke:#000000;stroke-width:1" />
  <path
     style="fill:#5ccbd6;fill-opacity:1;stroke-width:0.19175729"
     d="M 10.850861,106.88388 V 96.241355 H 21.589269 32.327678 V 64.217886 32.194417 h 42.57012 42.570122 V 74.860416 117.52641 H 96.182858 74.897798 V 106.88388 96.241355 H 85.732085 96.566373 V 74.85959 53.477824 l -21.524757,0.04877 -21.524757,0.04877 -0.0485,31.975529 -0.0485,31.975527 h -21.2845 -21.284498 z"
     id="path5992"
     inkscape:connector-curvature="0"
     transform="scale(3.1250078)" />
  <g
     inkscape:groupmode="layer"
     id="layer1"
     inkscape:label="texte">
    <flowRoot
       xml:space="preserve"
       id="flowRoot6219"
       style="font-style:normal;font-weight:normal;font-size:40px;line-height:1.25;font-family:sans-serif;letter-spacing:0px;word-spacing:0px;fill:#000000;fill-opacity:1;stroke:none;"
       transform="scale(3.1250078)"><flowRegion
         id="flowRegion6221"
         style="fill:#000000;fill-opacity:1;"><rect
           id="rect6223"
           width="1594.2701"
           height="69.22438"
           x="125.21751"
           y="49.57095"
           style="fill:#000000;fill-opacity:1;" /></flowRegion><flowPara
         id="flowPara6225"
         style="fill:#5ccbd6;fill-opacity:1">PhpTabs</flowPara></flowRoot>  </g>
</svg>
